<svg width="346" height="348" viewBox="0 0 346 348" fill="none" xmlns="http://www.w3.org/2000/svg">
<path fill-rule="evenodd" clip-rule="evenodd" d="M168.28 -2.90971C189.597 25.6256 196.602 74.0035 187.906 108.365C150.907 254.581 37.2639 186.542 15.2337 275.722C46.3404 240.705 83.0159 254.534 120.165 236.488C112.14 249.843 104.791 263.467 98.9831 277.822V277.817C80.0026 318.789 45.3256 340.006 42.9003 381.943C41.4795 406.506 50.3218 431.421 73.3826 443.12C59.0496 419.534 58.0816 380.399 86.1594 347.675C86.5705 358.702 88.1058 370.296 90.9787 382.557C101.408 427.057 135.591 454.469 172.1 460.5C218.752 468.204 252.029 440.406 282.142 403.932C321.768 355.941 346 291.657 346 221.015C346 72.8511 239.18 -48 106.68 -48C102.84 -48 99.0247 -47.9006 95.2307 -47.6958C141.659 -39.0556 215.77 -12.3513 262.37 43.4851C304.875 90.5819 328.446 154.198 328.446 221.015C328.446 286.217 306.171 345.569 269.709 389.987C243.832 421.511 212.101 446.11 171.782 435.557C118 421.482 91.1088 342.451 126.369 273.921C143.954 239.74 171.897 216.125 193.053 175.31C204.237 153.725 212.07 129.653 216.535 103.1C222.744 149.788 210.3 186.004 178.73 227.52C133.868 280.806 124.303 375.456 167.468 399.68C154.941 368.512 163.471 293.441 228.406 273.143C250.374 266.877 270.26 266.766 280.227 260.291C289.855 254.031 291.27 242.706 286.165 232.615C280.112 222.776 279.659 219.687 281.018 217.839C287.128 209.503 285.587 200.365 277.432 197.487C282.605 191.883 282.418 185.717 276.214 179.967C265.925 169.197 268.923 167.577 276.667 159.779C282.897 152.988 284.708 146.681 278.926 142.867C269.204 136.462 256.692 127.05 246.892 120.586C238.836 115.549 235.979 106.716 239.044 93.811C248.964 91.1025 254.605 86.9257 256.104 79.906C252.825 84.8608 246.632 87.5458 240.33 87.4347C243.65 59.3965 211.497 5.46721 168.28 -2.90971ZM170.476 62.5028C169.581 -57.9505 14.1668 -35.3059 -38.8194 7.38595C11.5489 -11.661 57.608 -5.50117 94.1221 12.9959C28.7756 27.0588 -23.3518 32.1482 -62.2548 28.258C-10.7416 55.951 39.2885 62.0992 95.0485 51.7099C116.865 47.6443 155.003 27.8778 170.476 62.5028ZM-53.5062 84.4454C-70.8889 85.6095 -93.1638 83.1117 -95.0686 59.806L-95.1519 58.7706L-94.2359 58.4781C-76.7179 52.915 -57.2117 63.3744 -52.4497 82.8601L-52.0906 84.3518L-53.5062 84.4454ZM93.8359 113.507C93.6173 132.724 78.1342 148.758 60.5849 149.214L59.5648 149.238L59.4035 148.144C56.1872 126.143 76.016 116.76 92.3839 112.267L93.8567 111.869L93.8359 113.507ZM47.0586 117.672C43.3479 136.351 25.6529 149.741 8.21811 146.74L7.18764 146.559L7.23969 145.43C8.20771 123.183 28.6923 117.479 45.8304 116.14L47.3813 116.023L47.0586 117.672ZM133.634 98.2568C118.494 97.391 99.5139 92.758 100.305 72.3363L100.341 71.3185L101.273 71.1488C116.959 68.2181 132.775 79.3619 134.852 96.8295L135.034 98.3387L133.634 98.2568ZM135.346 102.352C136.58 119.866 123.288 135.046 107.445 136.544L106.457 136.637L106.212 135.596C101.622 115.964 119.4 106.218 133.832 101.24L135.237 100.755L135.346 102.352ZM166.672 82.3453C153.9 82.7607 137.714 80.2102 136.892 63.1053L136.84 62.0758L137.761 61.8184C150.689 58.1798 164.772 66.3988 167.775 80.801L168.087 82.2985L166.672 82.3453ZM168.493 89.02C170.231 103.644 159.687 116.994 146.442 118.848L145.469 118.983L145.177 117.965C140.53 101.626 154.91 92.7638 166.937 87.9962L168.306 87.4464L168.493 89.02ZM92.6805 108.471C76.068 106.447 56.1351 99.9357 58.5604 77.4549L58.6645 76.4604L59.5805 76.3493C77.0361 74.1264 93.0917 87.8793 93.9764 107.149L94.0441 108.634L92.6805 108.471ZM46.4601 112.688C30.5086 105.797 14.0731 93.7759 21.9734 72.8804L22.3169 71.9678L23.2172 72.1023C40.7249 74.84 52.0132 93.1909 48.0267 111.805L47.7196 113.238L46.4601 112.688ZM4.86127 105.862C-9.12819 97.9351 -22.1236 85.5335 -13.3386 67.4751L-12.917 66.6035L-12.0323 66.8375C3.67987 70.9733 11.6166 88.9147 6.50586 105.148L6.0687 106.546L4.86127 105.862ZM3.41965 113.191C-4.67842 127.939 -23.253 134.643 -37.5078 126.658L-38.4394 126.131L-38.0543 125.066C-31.2313 106.347 -12.6099 107.225 2.69623 111.314L4.22113 111.723L3.41965 113.191ZM-31.9547 90.5409C-44.1122 82.4448 -54.7292 70.4644 -45.7568 54.9098L-45.278 54.0791L-44.4193 54.3716C-30.5287 59.1158 -24.6582 75.7526 -30.2737 89.9618L-30.8046 91.3072L-31.9547 90.5409ZM-32.4387 95.9871C-39.1212 109.494 -55.5776 116.672 -68.7239 110.243L-69.6971 109.763L-69.3484 108.675C-63.8942 91.6114 -47.2297 91.2838 -33.2506 94.1502L-31.6841 94.4661L-32.4387 95.9871ZM77.0725 488C18.3511 482.332 -39.3034 441.424 -66.1998 407.039C-112.831 352.326 -79.7677 287.843 -66.205 227.362C-56.0928 182.242 -69.0882 164.681 -83.8531 164.131C-96.3177 163.669 -109.958 172.649 -112.894 214.756C-115.423 251.001 -110.63 297.226 -98.7742 359.129C-121.033 318.326 -134.331 261.864 -132.894 214.346C-134.357 87.9202 27.4432 119.843 10.253 237.342C7.09396 258.933 0.47915 282.216 -4.47025 306.194C12.1839 289.703 39.2572 276.138 71.4049 281.467C15.0671 301.637 -31.0804 371.051 11.7779 432.485C25.3094 451.883 46.101 470.579 77.0725 488ZM-23.2686 423.05C-81.3966 335.244 55.0058 198.464 -50.5397 153.456C-38.4394 172.748 -35.8164 199.885 -42.6654 234.861C-59.2102 319.391 -95.0582 364.593 -23.2686 423.05Z" fill="white"/>
</svg>
