<svg xmlns="http://www.w3.org/2000/svg" xmlns:xlink="http://www.w3.org/1999/xlink" width="500" zoomAndPan="magnify" viewBox="0 0 375 374.999991" height="500" preserveAspectRatio="xMidYMid meet" version="1.0"><defs><clipPath id="0c585f7892"><path d="M 8 11 L 367.976562 11 L 367.976562 369.675781 L 8 369.675781 Z M 8 11 " clip-rule="nonzero"/></clipPath></defs><g clip-path="url(#0c585f7892)"><path fill="#ffffff" d="M 234.375 41.96875 C 250.375 61.023438 255.632812 93.328125 249.105469 116.273438 C 221.335938 213.910156 136.039062 168.476562 119.503906 228.027344 C 142.851562 204.644531 170.378906 213.878906 198.261719 201.828125 C 192.238281 210.746094 186.722656 219.84375 182.363281 229.429688 L 182.363281 229.425781 C 168.117188 256.785156 142.089844 270.953125 140.269531 298.957031 C 139.203125 315.359375 145.839844 331.996094 163.148438 339.808594 C 152.390625 324.058594 151.664062 297.925781 172.738281 276.074219 C 173.046875 283.4375 174.199219 291.179688 176.355469 299.367188 C 184.183594 329.082031 209.839844 347.386719 237.242188 351.414062 C 272.257812 356.558594 297.234375 337.996094 319.835938 313.640625 C 349.578125 281.59375 367.765625 238.667969 367.765625 191.496094 C 367.765625 92.558594 287.589844 11.859375 188.140625 11.859375 C 185.257812 11.859375 182.394531 11.925781 179.546875 12.0625 C 214.394531 17.832031 270.019531 35.664062 304.996094 72.949219 C 336.898438 104.398438 354.589844 146.878906 354.589844 191.496094 C 354.589844 235.035156 337.871094 274.667969 310.503906 304.328125 C 291.082031 325.378906 267.265625 341.804688 237.003906 334.757812 C 196.636719 325.359375 176.453125 272.585938 202.917969 226.824219 C 216.117188 204 237.089844 188.230469 252.96875 160.976562 C 261.363281 146.5625 267.242188 130.488281 270.59375 112.757812 C 275.253906 143.933594 265.914062 168.117188 242.21875 195.839844 C 208.546875 231.421875 201.367188 294.625 233.765625 310.800781 C 224.363281 289.988281 230.765625 239.859375 279.503906 226.304688 C 295.992188 222.121094 310.917969 222.046875 318.398438 217.722656 C 325.625 213.542969 326.6875 205.980469 322.855469 199.242188 C 318.3125 192.671875 317.972656 190.609375 318.992188 189.375 C 323.578125 183.808594 322.421875 177.707031 316.300781 175.785156 C 320.183594 172.042969 320.042969 167.925781 315.386719 164.085938 C 307.664062 156.894531 309.914062 155.8125 315.726562 150.605469 C 320.402344 146.070312 321.761719 141.859375 317.421875 139.3125 C 310.125 135.035156 300.734375 128.75 293.378906 124.433594 C 287.332031 121.070312 285.1875 115.171875 287.488281 106.554688 C 294.933594 104.746094 299.167969 101.957031 300.292969 97.269531 C 297.832031 100.578125 293.183594 102.371094 288.453125 102.296875 C 290.945312 83.574219 266.8125 47.5625 234.375 41.96875 Z M 236.023438 85.648438 C 235.351562 5.214844 118.703125 20.335938 78.933594 48.84375 C 116.738281 36.125 151.308594 40.238281 178.714844 52.589844 C 129.667969 61.980469 90.542969 65.378906 61.34375 62.78125 C 100.007812 81.273438 137.558594 85.378906 179.410156 78.441406 C 195.785156 75.726562 224.410156 62.527344 236.023438 85.648438 Z M 67.910156 100.300781 C 54.863281 101.078125 38.144531 99.410156 36.714844 83.847656 L 36.652344 83.15625 L 37.339844 82.960938 C 50.488281 79.246094 65.128906 86.230469 68.703125 99.242188 L 68.972656 100.238281 Z M 178.5 119.707031 C 178.335938 132.539062 166.714844 143.246094 153.542969 143.550781 L 152.777344 143.566406 L 152.65625 142.835938 C 150.242188 128.144531 165.125 121.878906 177.410156 118.878906 L 178.515625 118.613281 Z M 143.390625 122.488281 C 140.605469 134.960938 127.324219 143.902344 114.238281 141.898438 L 113.464844 141.777344 L 113.503906 141.023438 C 114.230469 126.167969 129.605469 122.359375 142.46875 121.464844 L 143.632812 121.386719 Z M 208.371094 109.523438 C 197.007812 108.945312 182.761719 105.851562 183.355469 92.214844 L 183.382812 91.535156 L 184.082031 91.421875 C 195.855469 89.464844 207.726562 96.90625 209.285156 108.570312 L 209.421875 109.578125 Z M 209.65625 112.257812 C 210.582031 123.953125 200.605469 134.089844 188.714844 135.089844 L 187.972656 135.152344 L 187.789062 134.457031 C 184.34375 121.347656 197.6875 114.839844 208.519531 111.515625 L 209.574219 111.191406 Z M 233.167969 98.898438 C 223.582031 99.175781 211.433594 97.472656 210.816406 86.050781 L 210.777344 85.363281 L 211.46875 85.191406 C 221.171875 82.761719 231.742188 88.25 233.996094 97.867188 L 234.230469 98.867188 Z M 234.535156 103.355469 C 235.839844 113.121094 227.925781 122.035156 217.984375 123.273438 L 217.253906 123.363281 L 217.035156 122.683594 C 213.546875 111.773438 224.339844 105.855469 233.367188 102.671875 L 234.394531 102.304688 Z M 177.632812 116.34375 C 165.164062 114.992188 150.203125 110.644531 152.023438 95.632812 L 152.101562 94.96875 L 152.789062 94.894531 C 165.890625 93.410156 177.941406 102.59375 178.605469 115.460938 L 178.65625 116.453125 Z M 142.941406 119.160156 C 130.96875 114.558594 118.632812 106.53125 124.5625 92.578125 L 124.820312 91.96875 L 125.496094 92.058594 C 138.636719 93.886719 147.109375 106.140625 144.117188 118.570312 L 143.886719 119.527344 Z M 111.71875 114.601562 C 101.21875 109.308594 91.464844 101.027344 98.058594 88.96875 L 98.375 88.386719 L 99.039062 88.542969 C 110.832031 91.304688 116.789062 103.285156 112.953125 114.125 L 112.625 115.058594 Z M 110.636719 119.496094 C 104.558594 129.34375 90.617188 133.820312 79.917969 128.488281 L 79.21875 128.136719 L 79.507812 127.425781 C 84.628906 114.925781 98.605469 115.511719 110.09375 118.242188 L 111.238281 118.515625 Z M 84.085938 104.371094 C 74.960938 98.964844 66.992188 90.964844 73.726562 80.578125 L 74.085938 80.023438 L 74.730469 80.21875 C 85.15625 83.386719 89.5625 94.496094 85.347656 103.984375 L 84.949219 104.882812 Z M 83.722656 108.007812 C 78.707031 117.027344 66.355469 121.820312 56.488281 117.527344 L 55.757812 117.207031 L 56.019531 116.480469 C 60.113281 105.085938 72.621094 104.867188 83.113281 106.78125 L 84.289062 106.992188 Z M 165.917969 369.777344 C 121.84375 365.992188 78.570312 338.675781 58.382812 315.714844 C 23.382812 279.179688 48.199219 236.121094 58.378906 195.734375 C 65.96875 165.605469 56.214844 153.878906 45.132812 153.511719 C 35.777344 153.203125 25.539062 159.199219 23.335938 187.316406 C 21.4375 211.519531 25.035156 242.386719 33.933594 283.722656 C 17.226562 256.476562 7.246094 218.773438 8.324219 187.042969 C 7.226562 102.621094 128.667969 123.9375 115.765625 202.398438 C 113.394531 216.816406 108.429688 232.363281 104.714844 248.375 C 117.214844 237.363281 137.535156 228.304688 161.664062 231.863281 C 119.378906 245.332031 84.742188 291.683594 116.910156 332.707031 C 127.066406 345.660156 142.671875 358.144531 165.917969 369.777344 Z M 90.605469 326.40625 C 46.976562 267.773438 149.355469 176.4375 70.136719 146.382812 C 79.21875 159.265625 81.1875 177.386719 76.046875 200.742188 C 63.628906 257.1875 36.722656 287.371094 90.605469 326.40625 Z M 90.605469 326.40625 " fill-opacity="1" fill-rule="evenodd"/></g></svg>